# xmcd CD database file
#
# Track frame offsets:
#	150
#	15347
#	36228
#	54852
#	76486
#	104751
#	121564
#	136845
#	156110
#	174066
#	188615
#	205400
#	231798
#	261206
#	280973
#	298915
#	324450
#	340483
#
# Disc length: 4686 seconds
#
# Revision: 1
# Processed by: cddbd v1.5.2PL0 Copyright (c) Steve Scherf et al.
# Submitted via: CDex 1.70beta2
#
DISCID=f8124c12
DTITLE=Green Country Okies... and one damned Englishman - Blues Society of Tulsa Compilation Volume One
DYEAR=2009
DGENRE=Blues
TTITLE0=Month Of Sundays - Little Joe McLerran
TTITLE1=Adoptive Son - Lata Gouveia
TTITLE2=Blues 4 U - Rocky Frisco
TTITLE3=Blues Plate Special - Jennifer Marriott and Odd Sheep Out
TTITLE4=In the Morning - Dustin Pittsley Band
TTITLE5=Mike Blackwell - Felix The Cat
TTITLE6=Good Morning Sunshine - Wanda Watson
TTITLE7=Keys To My Heart - Scott Ellison
TTITLE8=Long Long Night - Home Brewed Band
TTITLE9=Mississippi Mud - David Dover
TTITLE10=Honey By My Side - The Dinosaurs
TTITLE11=F 'N A - Locus
TTITLE12=My Heart Is On Fire - Jeff Parker and Malford Milligan
TTITLE13=The Devil Took My Money - The Zigs
TTITLE14=Before You Leave - BluesDogs
TTITLE15=Runaway Lullaby - Steve Pryor
TTITLE16=Up And Down My Thighs - Cindy Cain
TTITLE17=Walkin' Man Blues - Muskogee's Wild Card Band
EXTD=YEAR: 2009
EXTT0=
EXTT1=
EXTT2=
EXTT3=
EXTT4=
EXTT5=
EXTT6=
EXTT7=
EXTT8=
EXTT9=
EXTT10=
EXTT11=
EXTT12=
EXTT13=
EXTT14=
EXTT15=
EXTT16=
EXTT17=
PLAYORDER=
